<svg width="29" height="28" viewBox="0 0 29 28" fill="none" xmlns="http://www.w3.org/2000/svg">
<path d="M14.2827 13.9563C12.3602 13.9563 10.7873 13.3442 9.56394 12.1199C8.34057 10.8956 7.72888 9.32148 7.72888 7.39759C7.72888 5.4737 8.34057 3.8996 9.56394 2.67531C10.7873 1.45101 12.3602 0.838867 14.2827 0.838867C16.2051 0.838867 17.778 1.45101 19.0014 2.67531C20.2248 3.8996 20.8364 5.4737 20.8364 7.39759C20.8364 9.32148 20.2248 10.8956 19.0014 12.1199C17.778 13.3442 16.2051 13.9563 14.2827 13.9563ZM0.30127 27.992V23.8818C0.30127 22.7742 0.577985 21.8268 1.13141 21.0397C1.68484 20.2527 2.39848 19.6551 3.27232 19.247C5.22389 18.3725 7.09535 17.7167 8.88672 17.2794C10.6781 16.8422 12.4767 16.6235 14.2827 16.6235C16.0886 16.6235 17.88 16.8494 19.6568 17.3013C21.4336 17.7531 23.2966 18.4045 25.2459 19.2555C26.1576 19.6673 26.8886 20.2643 27.4388 21.0467C27.989 21.8291 28.2641 22.7742 28.2641 23.8818V27.992H0.30127ZM2.92278 25.3685H25.6425V23.8818C25.6425 23.4155 25.5042 22.9709 25.2275 22.5482C24.9508 22.1256 24.6085 21.8122 24.2007 21.6082C22.3365 20.7045 20.6325 20.0851 19.0888 19.7499C17.545 19.4146 15.943 19.247 14.2827 19.247C12.6224 19.247 11.0058 19.4146 9.43287 19.7499C7.85996 20.0851 6.15598 20.7045 4.32092 21.6082C3.91313 21.8122 3.57816 22.1256 3.31601 22.5482C3.05386 22.9709 2.92278 23.4155 2.92278 23.8818V25.3685ZM14.2827 11.3328C15.4186 11.3328 16.358 10.9612 17.1008 10.2178C17.8435 9.47452 18.2149 8.53444 18.2149 7.39759C18.2149 6.26075 17.8435 5.32066 17.1008 4.57734C16.358 3.83402 15.4186 3.46236 14.2827 3.46236C13.1467 3.46236 12.2073 3.83402 11.4645 4.57734C10.7218 5.32066 10.3504 6.26075 10.3504 7.39759C10.3504 8.53444 10.7218 9.47452 11.4645 10.2178C12.2073 10.9612 13.1467 11.3328 14.2827 11.3328Z" fill="#1F2F62"/>
</svg>
